<?xml version="1.0" standalone="no"?><!DOCTYPE svg PUBLIC "-//W3C//DTD SVG 1.1//EN" "http://www.w3.org/Graphics/SVG/1.1/DTD/svg11.dtd"><svg t="1531233809587" class="icon" style="" viewBox="0 0 1024 1024" version="1.1" xmlns="http://www.w3.org/2000/svg" p-id="1868" xmlns:xlink="http://www.w3.org/1999/xlink" width="200" height="200"><defs><style type="text/css"></style></defs><path d="M230.11328 158.27456a30.7968 30.7968 0 0 0 30.208-31.232V36.49536a30.208 30.208 0 1 0-60.416 0v90.56256a30.78656 30.78656 0 0 0 30.208 31.21664z m140.92288 0a30.7968 30.7968 0 0 0 30.208-31.232V36.49536a30.208 30.208 0 1 0-60.416 0v90.56256a30.83776 30.83776 0 0 0 30.208 31.21664z m141.0048 0a30.80192 30.80192 0 0 0 30.208-31.232V36.49536a30.208 30.208 0 1 0-60.416 0v90.56256a30.81216 30.81216 0 0 0 30.208 31.21664z m141.00992 0a30.7968 30.7968 0 0 0 30.208-31.232V36.49536a30.208 30.208 0 1 0-60.416 0v90.56256a30.78656 30.78656 0 0 0 30.208 31.21664z m140.92288-152.99584a30.80192 30.80192 0 0 0-30.208 31.232v90.5472a30.208 30.208 0 1 0 60.416 0V36.49536a30.7968 30.7968 0 0 0-30.208-31.21664zM230.11328 865.792a30.7968 30.7968 0 0 0-30.208 31.232v90.56768a30.208 30.208 0 1 0 60.416 0V897.024a30.83776 30.83776 0 0 0-30.208-31.232z m140.92288 0a30.7968 30.7968 0 0 0-30.208 31.232v90.56768a30.208 30.208 0 1 0 60.416 0V897.024a30.79168 30.79168 0 0 0-30.208-31.232z m141.0048 0a30.7968 30.7968 0 0 0-30.208 31.232v90.56768a30.208 30.208 0 1 0 60.416 0V897.024a30.7968 30.7968 0 0 0-30.208-31.232z m141.00992 0a30.7968 30.7968 0 0 0-30.208 31.232v90.56768a30.208 30.208 0 1 0 60.416 0V897.024a30.83264 30.83264 0 0 0-30.208-31.232z m140.92288 0a30.7968 30.7968 0 0 0-30.208 31.232v90.56768a30.208 30.208 0 1 0 60.416 0V897.024a30.79168 30.79168 0 0 0-30.208-31.232zM127.06304 763.79648H36.49536a30.208 30.208 0 1 0 0 60.416h90.56768a30.208 30.208 0 1 0 0-60.416z m0-140.96384H36.49536a30.208 30.208 0 1 0 0 60.416h90.56768a30.208 30.208 0 1 0 0-60.416z m0-141.00992H36.49536a30.208 30.208 0 1 0 0 60.416h90.56768a30.208 30.208 0 1 0 0-60.416z m0-140.96384H36.49536a30.208 30.208 0 1 0 0 60.416h90.56768a30.208 30.208 0 1 0 0-60.416z m0-140.96384H36.49536a30.208 30.208 0 1 0 0 60.416h90.56768a30.208 30.208 0 1 0 0-60.416z m860.52352 563.90144H897.024a30.208 30.208 0 1 0 0 60.416h90.56256a30.208 30.208 0 1 0 0-60.416z m0-140.96384H897.024a30.208 30.208 0 1 0 0 60.416h90.56256a30.208 30.208 0 1 0 0-60.416z m0-141.00992H897.024a30.208 30.208 0 1 0 0 60.416h90.56256a30.208 30.208 0 1 0 0-60.416z m0-140.96384H897.024a30.208 30.208 0 1 0 0 60.416h90.56256a30.208 30.208 0 1 0 0-60.416zM897.024 260.28544h90.56256a30.208 30.208 0 1 0 0-60.416H897.024a30.208 30.208 0 1 0 0 60.416z m-156.07296-60.416H283.136A83.4816 83.4816 0 0 0 199.89504 283.136v457.81504A83.48672 83.48672 0 0 0 283.136 824.18688h457.81504a83.4816 83.4816 0 0 0 83.23584-83.24096V283.136a83.4816 83.4816 0 0 0-83.23584-83.24096z m-62.43328 395.38688a83.4816 83.4816 0 0 1-83.23584 83.24096H428.80512a83.48672 83.48672 0 0 1-83.24096-83.24096V428.8a83.4816 83.4816 0 0 1 83.24096-83.24096h166.48192a83.4816 83.4816 0 0 1 83.23072 83.24096v166.4768z" fill="#ffffff" p-id="1869"></path></svg>