<?xml version="1.0" standalone="no"?><!DOCTYPE svg PUBLIC "-//W3C//DTD SVG 1.1//EN" "http://www.w3.org/Graphics/SVG/1.1/DTD/svg11.dtd"><svg t="1531233788765" class="icon" style="" viewBox="0 0 1058 1024" version="1.1" xmlns="http://www.w3.org/2000/svg" p-id="1717" xmlns:xlink="http://www.w3.org/1999/xlink" width="206.640625" height="200"><defs><style type="text/css"></style></defs><path d="M719.425641 191.671795c44.635897 23.630769 84.020513 49.887179 118.153846 86.646154 78.769231 78.769231 128.65641 186.420513 128.65641 307.2v34.133333c-15.753846-5.251282-28.882051-7.876923-42.010256-10.502564v-23.630769c0-107.651282-44.635897-207.425641-115.528205-278.317949-31.507692-28.882051-65.641026-55.138462-102.4-73.517949 5.251282-13.128205 10.502564-26.25641 13.128205-42.010256z m55.138462 756.184615c-68.266667 47.261538-154.912821 76.14359-246.810257 76.14359-89.271795 0-175.917949-28.882051-244.184615-76.14359 10.502564-10.502564 21.005128-21.005128 28.882051-31.507692 63.015385 42.010256 136.533333 65.641026 215.302564 65.641026 81.394872 0 154.912821-23.630769 217.928205-65.641026 7.876923 10.502564 18.379487 21.005128 28.882052 31.507692zM351.835897 233.682051c-36.758974 18.379487-73.517949 44.635897-102.4 73.517949-70.892308 70.892308-115.528205 170.666667-115.528205 278.317949v23.630769c-13.128205 2.625641-26.25641 5.251282-42.010256 10.502564v-34.133333c0-120.779487 49.887179-228.430769 128.65641-307.2 34.133333-36.758974 73.517949-63.015385 118.153846-86.646154 2.625641 15.753846 7.876923 28.882051 13.128205 42.010256zM527.753846 0c44.635897 0 84.020513 18.379487 112.902564 47.261538 28.882051 26.25641 44.635897 65.641026 44.635898 110.276924 0 42.010256-15.753846 81.394872-44.635898 110.276923s-68.266667 47.261538-112.902564 47.261538c-42.010256 0-81.394872-18.379487-110.276923-47.261538s-44.635897-68.266667-44.635897-110.276923c0-44.635897 15.753846-84.020513 44.635897-110.276924 28.882051-28.882051 68.266667-47.261538 110.276923-47.261538z m81.394872 76.14359c-21.005128-21.005128-47.261538-34.133333-81.394872-34.133334-31.507692 0-57.764103 13.128205-78.769231 34.133334s-34.133333 49.887179-34.133333 81.394872 13.128205 60.389744 34.133333 81.394871 47.261538 31.507692 78.769231 31.507693c34.133333 0 60.389744-10.502564 81.394872-31.507693s34.133333-49.887179 34.133333-81.394871-13.128205-60.389744-34.133333-81.394872zM21.005128 879.589744c-21.005128-36.758974-26.25641-81.394872-15.753846-118.153847 10.502564-39.384615 36.758974-73.517949 73.517949-97.148718 36.758974-21.005128 81.394872-26.25641 118.153846-15.753846 39.384615 10.502564 73.517949 36.758974 97.148718 73.517949 21.005128 39.384615 26.25641 81.394872 15.753846 120.779487-10.502564 36.758974-34.133333 70.892308-70.892308 91.897436l-2.625641 2.625641c-39.384615 21.005128-81.394872 26.25641-120.779487 15.753846-36.758974-10.502564-70.892308-34.133333-91.897436-70.892307l-2.625641-2.625641z m26.25641-107.651282c-7.876923 28.882051-5.251282 60.389744 10.502565 86.646153s42.010256 44.635897 70.892307 52.512821c26.25641 7.876923 57.764103 5.251282 86.646154-10.502564 26.25641-15.753846 44.635897-42.010256 52.512821-70.892308 7.876923-26.25641 5.251282-57.764103-10.502564-86.646154-15.753846-26.25641-42.010256-44.635897-70.892308-52.51282s-60.389744-5.251282-86.646154 10.502564-44.635897 42.010256-52.512821 70.892308zM1037.128205 879.589744c-21.005128 36.758974-57.764103 63.015385-94.523077 73.517948-39.384615 10.502564-81.394872 5.251282-120.779487-15.753846-36.758974-21.005128-63.015385-57.764103-73.517949-94.523077-10.502564-39.384615-5.251282-81.394872 15.753846-120.779487 23.630769-36.758974 57.764103-63.015385 97.148718-73.517949 36.758974-10.502564 81.394872-5.251282 118.153847 15.753846 36.758974 23.630769 63.015385 57.764103 73.517948 97.148718 10.502564 36.758974 5.251282 81.394872-15.753846 118.153847z m-107.651282 31.507692c28.882051-7.876923 55.138462-26.25641 70.892308-52.512821s18.379487-57.764103 10.502564-86.646153-26.25641-55.138462-52.512821-70.892308-57.764103-18.379487-86.646153-10.502564-55.138462 26.25641-70.892308 52.51282c-15.753846 28.882051-18.379487 60.389744-10.502564 86.646154 7.876923 28.882051 26.25641 55.138462 52.51282 70.892308 28.882051 15.753846 60.389744 18.379487 86.646154 10.502564z" fill="#ffffff" p-id="1718"></path><path d="M112.902564 611.774359m-21.005128 0a21.005128 21.005128 0 1 0 42.010256 0 21.005128 21.005128 0 1 0-42.010256 0Z" fill="#ffffff" p-id="1719"></path><path d="M296.697436 932.102564m-21.005128 0a21.005128 21.005128 0 1 0 42.010256 0 21.005128 21.005128 0 1 0-42.010256 0Z" fill="#ffffff" p-id="1720"></path><path d="M758.810256 934.728205m-21.005128 0a21.005128 21.005128 0 1 0 42.010257 0 21.005128 21.005128 0 1 0-42.010257 0Z" fill="#ffffff" p-id="1721"></path><path d="M945.230769 611.774359m-21.005128 0a21.005128 21.005128 0 1 0 42.010256 0 21.005128 21.005128 0 1 0-42.010256 0Z" fill="#ffffff" p-id="1722"></path><path d="M711.548718 212.676923m-21.005128 0a21.005128 21.005128 0 1 0 42.010256 0 21.005128 21.005128 0 1 0-42.010256 0Z" fill="#ffffff" p-id="1723"></path><path d="M343.958974 215.302564m-21.005128 0a21.005128 21.005128 0 1 0 42.010257 0 21.005128 21.005128 0 1 0-42.010257 0Z" fill="#ffffff" p-id="1724"></path></svg>