<?xml version="1.0" standalone="no"?><!DOCTYPE svg PUBLIC "-//W3C//DTD SVG 1.1//EN" "http://www.w3.org/Graphics/SVG/1.1/DTD/svg11.dtd"><svg t="1531233750302" class="icon" style="" viewBox="0 0 1024 1024" version="1.1" xmlns="http://www.w3.org/2000/svg" p-id="1538" xmlns:xlink="http://www.w3.org/1999/xlink" width="200" height="200"><defs><style type="text/css"></style></defs><path d="M639.84883378 919.24881328c-11.20472926 0-21.83485697-6.89521801-25.85706749-18.09994729-5.1714135-14.3650375 2.15475562-30.16657874 16.37614274-35.33799228C774.4492352 812.94753571 871.26958799 674.32492379 871.26958799 520.76267288c0-202.54702877-164.76698018-367.31400899-367.31400899-367.31400902-15.22693977 0-27.58087197-12.35393224-27.58087203-27.58087199s12.35393224-27.58087197 27.58087203-27.58087203c232.85725791 0 422.33210265 189.4748447 422.33210264 422.47575304 0 176.54631095-111.32904064 335.99822724-277.10157344 396.7623359-3.01665786 1.149203-6.32061648 1.7238045-9.33727442 1.7238045z" p-id="1539" fill="#ffffff"></path><path d="M502.80637602 154.02326539c-8.76267288 0-17.38169537-4.16586089-22.84040965-11.92298113-8.61902251-12.64123302-5.31506387-29.73562763 7.18251874-38.35465015l123.53932254-84.46642051c12.64123302-8.61902251 29.73562763-5.31506387 38.35465014 7.18251873 8.61902251 12.64123302 5.31506387 29.73562763-7.18251876 38.35465016l-123.39567214 84.4664205c-4.88411275 3.16030825-10.342827 4.74046239-15.65789087 4.7404624z" p-id="1540" fill="#ffffff"></path><path d="M509.12699251 923.27102375c-232.85725791 0-422.33210265-189.4748447-422.33210262-422.47575301 0-176.54631095 111.32904064-335.99822724 277.10157344-396.76233588 14.22138712-5.1714135 30.16657874 2.15475562 35.33799225 16.37614275 5.1714135 14.3650375-2.15475562 30.16657874-16.37614275 35.33799227-144.08132616 52.71968762-240.90167896 191.48594995-240.90167896 344.90455049 0 202.54702877 164.76698018 367.31400899 367.31400899 367.31400901 15.22693977 0 27.58087197 12.35393224 27.58087203 27.58087199-0.14365036 15.3705901-12.49758264 27.72452237-27.72452238 27.72452238z" p-id="1541" fill="#ffffff"></path><path d="M389.60988044 1006.73189168c-8.76267288 0-17.38169537-4.16586089-22.84040963-12.06663152-8.61902251-12.49758264-5.31506387-29.73562763 7.18251876-38.35465015l123.53932255-84.4664205c12.64123302-8.61902251 29.73562763-5.31506387 38.35465015 7.18251874s5.31506387 29.73562763-7.18251878 38.35465013l-123.53932256 84.46642052c-4.74046239 3.44760899-10.19917662 4.88411275-15.51424049 4.88411278z" p-id="1542" fill="#ffffff"></path><path d="M480.971519 685.81695381s-7.32616913-1.58015414-21.69120662-4.59681199c-14.50868788-3.16030825-28.01182314-7.75712029-40.65305614-13.93408642-12.64123302-6.17696611-24.27691337-13.93408638-35.33799228-23.12771036l29.30467651-36.05624415c12.78488336 11.06107888 26.86262016 19.39280062 42.37686063 24.99516529 15.3705901 5.60236461 32.177684 8.33172175 50.2776313 8.33172174 24.42056376 0 43.23876288-4.45316162 56.74189811-13.50313526 13.35948489-9.04997361 20.11105249-21.83485697 20.11105248-38.35465012v-0.28730079c0-11.77933076-3.01665786-20.97295478-9.19362399-27.86817272-6.03331578-6.89521801-13.93408638-11.92298114-23.55866149-15.22693978-9.62457512-3.30395866-22.12215774-6.32061648-37.34909751-9.19362399-0.43095111-0.14365036-1.00555261-0.28730073-1.43650376-0.28730073s-1.00555261 0-1.43650373-0.28730077l-3.44760899-0.71825185c-22.55310888-3.87856008-40.79670652-8.18807141-55.01809368-13.07218413-14.07773674-4.88411275-26.14436826-13.64678562-36.19989452-26.5753194s-15.08328938-31.17213139-15.08328934-55.01809364v-0.28730077c0-20.82930437 4.59681201-38.64195088 13.93408637-53.29428915s22.98405999-26.0007179 40.7967065-33.61418773c17.81264649-7.75712029 39.36020277-11.49203001 64.4990184-11.49203 12.06663149 0 23.84596227 1.29285337 35.48164264 3.8785601 11.63568037 2.58570677 23.12771037 6.46426689 34.47609001 11.63568038 11.34837963 5.1714135 22.40945852 11.63568037 33.47053739 19.536451L595.31721754 415.17964722c-12.78488336-9.33727436-25.56976676-16.51979311-38.35465015-21.11660512-12.78488336-4.74046239-25.4261164-7.03886841-38.35465014-7.03886837-22.98405999 0-40.79670652 4.59681201-53.58158986 13.79043597-12.78488336 9.19362398-19.10549988 22.12215774-19.10549992 38.92925165v0.28730075c0 11.63568037 3.30395866 20.68565399 9.76822551 27.29357126 6.60791725 6.60791725 14.79598861 11.49203001 24.56421415 14.65233825 9.76822552 3.16030825 23.41501112 6.46426689 40.79670648 9.76822549 0.5746015 0.14365036 1.149203 0.28730073 1.72380452 0.28730078 0.5746015 0.14365036 1.149203 0.14365036 1.72380451 0.28730073 0.71825189 0.14365036 1.58015414 0.28730073 2.58570674 0.43095113l2.58570673 0.43095112c20.39835325 4.16586089 37.34909751 9.04997361 50.99588313 14.79598863 13.64678562 5.74601499 24.99516526 14.93963899 34.1887893 27.58087201 9.19362398 12.78488336 13.79043602 30.16657874 13.79043599 52.14508614v0.43095112c0 20.54200362-4.88411275 38.06734939-14.50868787 52.57603728s-23.84596227 25.71341713-42.23321029 33.32688701c-18.38724802 7.61346989-40.65305614 11.49203001-66.79742438 11.49203-15.94519162 0.28730073-24.13326301 0.28730073-24.13326299 0.28730076z" p-id="1543" fill="#ffffff"></path><path d="M527.80154121 786.22856598c-15.22693977 0-27.29357127-12.35393224-27.29357122-27.58087203v-82.74261604c0-15.22693977 12.06663149-27.58087197 27.29357122-27.580872s27.29357127 12.35393224 27.29357133 27.580872v82.74261604c0 15.22693977-12.06663149 27.58087197-27.29357133 27.58087203zM527.80154121 372.65913623c-15.22693977 0-27.29357127-12.35393224-27.29357122-27.58087201v-82.74261607c0-15.22693977 12.06663149-27.58087197 27.29357122-27.58087195s27.29357127 12.35393224 27.29357133 27.58087195v82.74261607c0 15.22693977-12.06663149 27.58087197-27.29357133 27.58087201z" p-id="1544" fill="#ffffff"></path></svg>