<?xml version="1.0" standalone="no"?><!DOCTYPE svg PUBLIC "-//W3C//DTD SVG 1.1//EN" "http://www.w3.org/Graphics/SVG/1.1/DTD/svg11.dtd"><svg t="1529499452299" class="icon" style="" viewBox="0 0 1024 1024" version="1.1" xmlns="http://www.w3.org/2000/svg" p-id="5801" xmlns:xlink="http://www.w3.org/1999/xlink" width="32" height="32"><defs><style type="text/css"></style></defs><path d="M123.240347 541.838585c0.977257 0.105401 1.971911 0.156566 2.931772 0.156566 14.220886 0 26.418696-10.748808 27.919886-25.196869 11.760858-112.48898 77.56354-213.409484 176.048575-269.979898 13.453407-7.731078 18.095124-24.901133 10.365068-38.35454-7.730055-13.452383-24.90011-18.10331-38.353516-10.373255C188.064748 263.622096 111.827413 380.587018 98.217441 510.970554 96.594477 526.413268 107.814006 540.215622 123.240347 541.838585L123.240347 541.838585zM123.240347 541.838585" p-id="5802" fill="#ffffff"></path><path d="M680.89413 862.003466c-52.960189 30.117948-113.387443 46.049802-174.723394 46.049802-70.931492 0-139.369188-20.905122-197.895139-60.445674-12.877285-8.688893-30.327726-5.304819-39.017642 7.556093-8.689916 12.843516-5.304819 30.309306 7.538697 38.999223 67.87897 45.841048 147.169851 70.077032 229.374084 70.077032 71.056336 0 141.080156-18.461467 202.503087-53.396117 13.489222-7.659447 18.21792-24.813129 10.541077-38.301328C711.553407 859.054297 694.400748 854.325599 680.89413 862.003466L680.89413 862.003466zM680.89413 862.003466" p-id="5803" fill="#ffffff"></path><path d="M704.084295 260.46315c88.312348 59.670008 144.640238 154.473187 154.550958 260.10397 1.029446 11.045567 1.553379 22.318308 1.553379 33.468253 0 15.513322 12.58155 28.093848 28.092825 28.093848 15.513322 0 28.094872-12.580526 28.094872-28.093848 0-12.895705-0.593518-25.91216-1.796926-38.711673-11.482519-122.443703-76.726475-232.30688-179.032536-301.42405-12.860912-8.689916-30.327726-5.305843-39.017642 7.55507C687.839309 234.316653 691.224406 251.782444 704.084295 260.46315L704.084295 260.46315zM704.084295 260.46315" p-id="5804" fill="#ffffff"></path><path d="M410.844647 160.897503c0 26.488281 10.92277 52.8026 29.628808 71.52501 18.723434 18.723434 45.054125 29.620621 71.52501 29.620621 26.471908 0 52.786227-10.897188 71.50966-29.620621 18.74083-18.723434 29.629831-45.037752 29.629831-71.52501 0-26.470885-10.889001-52.785204-29.629831-71.508637-18.723434-18.723434-45.037752-29.629831-71.50966-29.629831-26.470885 0-52.801577 10.906397-71.52501 29.629831C421.767418 108.1123 410.844647 134.425595 410.844647 160.897503L410.844647 160.897503zM410.844647 160.897503" p-id="5805" fill="#ffffff"></path><path d="M65.289494 731.23619c0 26.470885 10.906397 52.785204 29.629831 71.508637s45.037752 29.628808 71.508637 29.628808 52.8026-10.905374 71.526033-29.628808 29.629831-45.037752 29.629831-71.508637c0-26.488281-10.906397-52.8026-29.629831-71.52501s-45.055149-29.629831-71.526033-29.629831-52.785204 10.906397-71.508637 29.629831S65.289494 704.748932 65.289494 731.23619L65.289494 731.23619zM65.289494 731.23619" p-id="5806" fill="#ffffff"></path><path d="M756.432547 734.045165c0 26.470885 10.889001 52.785204 29.612435 71.508637s45.037752 29.629831 71.52501 29.629831c26.471908 0 52.786227-10.906397 71.50966-29.629831s29.629831-45.037752 29.629831-71.508637c0-26.488281-10.906397-52.8026-29.629831-71.52501s-45.037752-29.629831-71.50966-29.629831c-26.488281 0-52.8026 10.906397-71.52501 29.629831S756.432547 707.557908 756.432547 734.045165L756.432547 734.045165zM756.432547 734.045165" p-id="5807" fill="#ffffff"></path></svg>